<svg width="190" height="30" viewBox="0 0 190 30" fill="none" xmlns="http://www.w3.org/2000/svg">
<path d="M58.239 23.0117H55.2859L53.5046 13.7539L50.0476 23.2344H48.9578L45.5007 13.7539L43.6492 23.0117H40.7078L44.1648 5.83203H45.782L49.4968 17.3984L53.1296 5.83203H54.7351L58.239 23.0117ZM67.2507 15.957V23H64.2039V15.957L58.4148 5.83203H61.6492L65.7156 13.1562L69.7937 5.83203H73.0164L67.2507 15.957Z" fill="#7177F1"/>
<path d="M87.9812 23.2344H86.7507L84.8875 12.7578L79.321 23.2344H78.0906L75.6648 5.83203H78.7703L80.071 16.2383L85.4851 5.83203H86.8093L88.4031 16.168L93.4187 5.83203H96.7234L87.9812 23.2344ZM96.4773 16.6133C96.4773 13.5586 97.3093 10.9492 98.9734 8.78516C100.645 6.61328 102.817 5.52734 105.489 5.52734C107.544 5.52734 109.126 6.07422 110.235 7.16797C111.344 8.25391 111.899 9.82812 111.899 11.8906C111.899 15.2734 111.048 18.0195 109.344 20.1289C107.641 22.2383 105.309 23.293 102.348 23.293C100.536 23.293 99.1023 22.6836 98.0476 21.4648C97.0007 20.2383 96.4773 18.6211 96.4773 16.6133ZM99.6414 16.2969C99.6414 17.6172 99.9031 18.668 100.427 19.4492C100.95 20.2305 101.716 20.6211 102.723 20.6211C104.583 20.6211 106.052 19.7852 107.13 18.1133C108.208 16.4414 108.747 14.4453 108.747 12.125C108.747 9.5 107.591 8.1875 105.278 8.1875C103.653 8.1875 102.305 9.04688 101.235 10.7656C100.173 12.4844 99.6414 14.3281 99.6414 16.2969ZM122.071 15.3945L125.903 23H122.469L119.188 15.8984C118.657 15.8906 118.005 15.8594 117.231 15.8047L115.907 23H112.766L115.907 5.83203C118.188 5.71484 119.684 5.65625 120.395 5.65625C122.247 5.65625 123.708 6.01563 124.778 6.73438C125.856 7.44531 126.395 8.47656 126.395 9.82812C126.395 11.2031 126.001 12.3984 125.212 13.4141C124.43 14.4219 123.384 15.082 122.071 15.3945ZM118.567 8.46875L117.688 13.2734C118.149 13.3203 118.559 13.3438 118.919 13.3438C121.872 13.3438 123.348 12.4062 123.348 10.5312C123.348 9.74219 123.063 9.18359 122.493 8.85547C121.93 8.51953 120.993 8.35156 119.68 8.35156C119.571 8.35156 119.2 8.39062 118.567 8.46875ZM136.696 13.3789L140.962 23H137.528L134.317 15.6641L131.88 18.3477L131.012 23H127.966L131.118 5.83203H134.165L132.747 13.6367L139.872 5.83203H143.481L136.696 13.3789Z" fill="#323232"/>
<rect y="23.5714" width="35.9763" height="1.07143" fill="#323232"/>
<rect y="23.5714" width="35.9763" height="1.07143" fill="#323232"/>
<rect y="23.5714" width="35.9763" height="1.07143" fill="#323232"/>
<rect y="23.5714" width="35.9763" height="1.07143" fill="#323232"/>
<rect x="154.024" y="15" width="35.9763" height="1.07143" fill="#7177F1"/>
<rect x="11.2426" y="15" width="26.9822" height="1.07143" fill="#323232"/>
<g filter="url(#filter0_f_67_3)">
<rect x="158.521" y="23.5714" width="26.9822" height="1.07143" fill="#7177F1"/>
</g>
<g filter="url(#filter1_f_67_3)">
<rect x="158.521" y="6.42856" width="26.9822" height="1.07143" fill="#7177F1"/>
</g>
<rect x="23.6095" y="6.42856" width="17.9882" height="1.07143" fill="#323232"/>
<defs>
<filter id="filter0_f_67_3" x="156.521" y="21.5714" width="30.9823" height="5.07144" filterUnits="userSpaceOnUse" color-interpolation-filters="sRGB">
<feFlood flood-opacity="0" result="BackgroundImageFix"/>
<feBlend mode="normal" in="SourceGraphic" in2="BackgroundImageFix" result="shape"/>
<feGaussianBlur stdDeviation="1" result="effect1_foregroundBlur_67_3"/>
</filter>
<filter id="filter1_f_67_3" x="156.521" y="4.42856" width="30.9823" height="5.07144" filterUnits="userSpaceOnUse" color-interpolation-filters="sRGB">
<feFlood flood-opacity="0" result="BackgroundImageFix"/>
<feBlend mode="normal" in="SourceGraphic" in2="BackgroundImageFix" result="shape"/>
<feGaussianBlur stdDeviation="1" result="effect1_foregroundBlur_67_3"/>
</filter>
</defs>
</svg>
